<?xml version="1.0" encoding="UTF-8"?>
<!DOCTYPE svg PUBLIC "-//W3C//DTD SVG 1.1//EN" "http://www.w3.org/Graphics/SVG/1.1/DTD/svg11.dtd">
<svg xmlns="http://www.w3.org/2000/svg" version="1.1" width="1108px" height="1101px" style="shape-rendering:geometricPrecision; text-rendering:geometricPrecision; image-rendering:optimizeQuality; fill-rule:evenodd; clip-rule:evenodd" xmlns:xlink="http://www.w3.org/1999/xlink">
<g><path style="opacity:0.976" fill="#928d8a" d="M 406.5,-0.5 C 636.833,-0.5 867.167,-0.5 1097.5,-0.5C 1099.51,1.26762 1101.67,2.93429 1104,4.5C 1105.21,6.92521 1106.38,9.25855 1107.5,11.5C 1107.5,281.833 1107.5,552.167 1107.5,822.5C 1106.16,827.973 1102.83,831.806 1097.5,834C 1075.84,834.5 1054.17,834.667 1032.5,834.5C 1032.67,855.836 1032.5,877.169 1032,898.5C 1030.5,904 1027,907.5 1021.5,909C 998.502,909.5 975.502,909.667 952.5,909.5C 955.275,991.157 920.275,1049.99 847.5,1086C 828.133,1094.01 808.133,1098.84 787.5,1100.5C 580.167,1100.5 372.833,1100.5 165.5,1100.5C 92.9206,1093.08 41.7539,1056.08 12,989.5C 4.40478,969.025 0.238111,948.025 -0.5,926.5C -0.5,925.5 -0.5,924.5 -0.5,923.5C 0.65664,914.845 5.65664,910.012 14.5,909C 90.1659,908.5 165.833,908.333 241.5,908.5C 241.333,659.166 241.5,409.833 242,160.5C 243.931,154.902 247.764,151.402 253.5,150C 276.164,149.5 298.831,149.333 321.5,149.5C 321.333,127.831 321.5,106.164 322,84.5C 324.07,78.5429 328.236,75.0429 334.5,74C 354.831,73.5 375.164,73.3334 395.5,73.5C 395.333,53.1639 395.5,32.8306 396,12.5C 397.524,6.48484 401.024,2.15151 406.5,-0.5 Z M 427.5,30.5 C 643.5,30.5 859.5,30.5 1075.5,30.5C 1075.5,288.167 1075.5,545.833 1075.5,803.5C 1061.17,803.5 1046.83,803.5 1032.5,803.5C 1032.67,563.833 1032.5,324.166 1032,84.5C 1029.64,78.7979 1025.47,75.2979 1019.5,74C 822.167,73.5 624.834,73.3333 427.5,73.5C 427.5,59.1667 427.5,44.8333 427.5,30.5 Z M 352.5,105.5 C 568.5,105.5 784.5,105.5 1000.5,105.5C 1000.5,362.833 1000.5,620.167 1000.5,877.5C 984.5,877.5 968.5,877.5 952.5,877.5C 952.667,638.5 952.5,399.5 952,160.5C 950.421,154.59 946.588,151.09 940.5,150C 744.5,149.5 548.5,149.333 352.5,149.5C 352.5,134.833 352.5,120.167 352.5,105.5 Z M 273.5,181.5 C 489.5,181.5 705.5,181.5 921.5,181.5C 921.667,430.167 921.5,678.834 921,927.5C 916.646,990.066 885.812,1033.9 828.5,1059C 773.727,1077.63 724.394,1068.3 680.5,1031C 648.942,1000.69 633.109,963.528 633,919.5C 631.167,915 628,911.833 623.5,910C 506.877,908.508 390.21,908.008 273.5,908.5C 273.5,666.167 273.5,423.833 273.5,181.5 Z M 32.5,940.5 C 222.5,940.5 412.5,940.5 602.5,940.5C 608.156,993.922 632.489,1036.42 675.5,1068C 504.833,1068.67 334.167,1068.67 163.5,1068C 107.159,1060.93 66.9927,1031.76 43,980.5C 37.7605,967.616 34.2605,954.283 32.5,940.5 Z"/></g>
<g><path style="opacity:0.969" fill="#928d8a" d="M 398.5,361.5 C 530.833,361.5 663.167,361.5 795.5,361.5C 795.5,372.167 795.5,382.833 795.5,393.5C 663.167,393.5 530.833,393.5 398.5,393.5C 398.5,382.833 398.5,372.167 398.5,361.5 Z"/></g>
<g><path style="opacity:0.967" fill="#928d8a" d="M 398.5,522.5 C 511.167,522.5 623.833,522.5 736.5,522.5C 736.5,533.167 736.5,543.833 736.5,554.5C 623.833,554.5 511.167,554.5 398.5,554.5C 398.5,543.833 398.5,533.167 398.5,522.5 Z"/></g>
<g><path style="opacity:0.998" fill="#928d8a" d="M 398.5,683.5 C 491.167,683.5 583.833,683.5 676.5,683.5C 676.5,693.833 676.5,704.167 676.5,714.5C 583.833,714.5 491.167,714.5 398.5,714.5C 398.5,704.167 398.5,693.833 398.5,683.5 Z"/></g>
</svg>
